<svg width="24" height="24" viewBox="0 0 24 24" fill="none" xmlns="http://www.w3.org/2000/svg">
<path d="M21.3798 5.76C21.3457 5.63231 21.2866 5.51265 21.2059 5.40795C21.1252 5.30324 21.0246 5.21557 20.9098 5.15L15.7098 2.15C15.5963 2.08347 15.4708 2.04 15.3404 2.02209C15.21 2.00417 15.0774 2.01217 14.9501 2.04561C14.8228 2.07906 14.7034 2.13729 14.5987 2.21698C14.494 2.29667 14.406 2.39625 14.3398 2.51L11.9998 6.57L9.65985 2.51C9.59369 2.39625 9.50572 2.29667 9.401 2.21698C9.29628 2.13729 9.17685 2.07906 9.04958 2.04561C8.92231 2.01217 8.78968 2.00417 8.65931 2.02209C8.52894 2.04 8.40339 2.08347 8.28985 2.15L3.08985 5.15C2.97508 5.21557 2.87445 5.30324 2.79378 5.40795C2.7131 5.51265 2.65399 5.63231 2.61985 5.76C2.55367 6.01345 2.58957 6.28275 2.71985 6.51L6.71985 13.34C6.2736 14.1575 6.02689 15.069 5.99985 16C5.99747 16.9083 6.20133 17.8053 6.59607 18.6233C6.9908 19.4413 7.56611 20.159 8.27861 20.7224C8.9911 21.2857 9.8222 21.6799 10.7092 21.8753C11.5962 22.0706 12.5161 22.0621 13.3993 21.8502C14.2825 21.6384 15.1061 21.2288 15.808 20.6523C16.5099 20.0758 17.0718 19.3475 17.4512 18.5222C17.8306 17.697 18.0178 16.7964 17.9985 15.8883C17.9792 14.9802 17.754 14.0884 17.3398 13.28L21.2398 6.52C21.3124 6.40894 21.3622 6.28455 21.3862 6.15407C21.4103 6.02359 21.4081 5.88963 21.3798 5.76ZM4.99985 6.38L8.45985 4.38L11.6798 10C10.3073 10.0848 9.00664 10.6432 7.99985 11.58L4.99985 6.38ZM11.9998 20C10.939 20 9.92157 19.5786 9.17142 18.8284C8.42128 18.0783 7.99985 17.0609 7.99985 16C7.99985 14.9391 8.42128 13.9217 9.17142 13.1716C9.92157 12.4214 10.939 12 11.9998 12C13.0607 12 14.0781 12.4214 14.8283 13.1716C15.5784 13.9217 15.9998 14.9391 15.9998 16C15.9998 17.0609 15.5784 18.0783 14.8283 18.8284C14.0781 19.5786 13.0607 20 11.9998 20ZM15.9998 11.55C15.4569 11.0541 14.8261 10.6641 14.1398 10.4L13.1598 8.57L15.5798 4.38L19.0399 6.38L15.9998 11.55Z" fill="#6C93EC"/>
</svg>
